<svg width="692" height="948" viewBox="0 0 692 948" fill="none" xmlns="http://www.w3.org/2000/svg">
<rect x="304.622" width="422" height="764.405" rx="200" transform="rotate(23.485 304.622 0)" fill="#81543C"/>
<ellipse cx="273.427" cy="609.511" rx="158.5" ry="186" transform="rotate(-65.9667 273.427 609.511)" fill="#EEB957"/>
<path d="M418.696 610.23C418.696 639.094 413.39 660.742 402.778 675.174C392.591 689.606 377.31 696.822 356.935 696.822C346.323 696.822 336.56 695.124 327.646 691.729C318.732 687.908 310.243 683.664 302.178 678.994C294.537 673.901 287.321 669.444 280.53 665.623C273.738 661.803 267.159 659.893 260.792 659.893C244.237 659.893 235.96 670.929 235.96 693.002H185.023C185.023 664.138 190.117 642.49 200.304 628.057C210.916 613.625 226.409 606.409 246.784 606.409C256.971 606.409 266.522 608.319 275.436 612.14C284.35 615.535 292.627 619.78 300.268 624.874C308.333 629.543 315.761 633.788 322.553 637.608C329.769 641.428 336.772 643.338 343.564 643.338C360.118 643.338 368.396 632.302 368.396 610.23H418.696Z" fill="#3B3737"/>
<path d="M154.781 650.976C134.873 599.222 167.216 540.215 227.023 519.18C286.829 498.144 351.449 523.045 371.358 574.797C372.616 578.07 373.665 581.372 374.512 584.691C352.347 536.572 290.144 514.083 232.423 534.386C176.399 554.091 144.474 607.118 157.025 656.289C156.225 654.55 155.475 652.78 154.781 650.976Z" fill="#C86C3B"/>
<path d="M132.562 660.204C95.1516 612.898 109.735 540.26 165.134 497.962C220.533 455.665 295.769 459.725 333.179 507.031C335.545 510.023 337.702 513.117 339.655 516.297C301.071 473.554 229.127 471.192 175.659 512.015C123.762 551.639 107.685 617.886 136.613 664.993C135.219 663.449 133.866 661.853 132.562 660.204Z" fill="#C86C3B"/>
<path d="M229.66 172.757C264.408 77.1268 380.242 34.366 488.381 77.2483C596.521 120.131 656.017 232.418 621.269 328.049C619.074 334.09 616.554 339.919 613.734 345.53C640.969 252.218 581.912 146.193 477.55 104.808C376.241 64.6341 268.18 99.6261 226.362 182.836C227.347 179.459 228.446 176.098 229.66 172.757Z" fill="#BE7D5A"/>
<path d="M87.66 501.757C122.408 406.127 238.242 363.366 346.381 406.248C454.521 449.131 514.017 561.418 479.269 657.049C477.074 663.09 474.554 668.919 471.734 674.53C498.969 581.218 439.912 475.193 335.55 433.808C234.241 393.634 126.18 428.626 84.3618 511.836C85.3475 508.459 86.4462 505.098 87.66 501.757Z" fill="#BE7D5A"/>
</svg>
